<svg width="122" height="122" viewBox="0 0 122 122" fill="none" xmlns="http://www.w3.org/2000/svg">
<g clip-path="url(#clip0_3136_193)">
<rect x="0.360352" y="12.3911" width="121" height="109" rx="40" fill="url(#paint0_radial_3136_193)"/>
<rect x="0.360352" y="12.3911" width="121" height="109" rx="40" fill="black" fill-opacity="0.45"/>
<rect x="0.360352" y="0.391113" width="121" height="112" rx="41" fill="url(#paint1_radial_3136_193)"/>
</g>
<path d="M81.8526 53.6231L62.3944 36.3269C61.9999 35.9803 61.4929 35.7891 60.9677 35.7891C60.4425 35.7891 59.9355 35.9803 59.5409 36.3269L40.0828 53.6231C39.8555 53.8062 39.6672 54.0334 39.5301 54.2911C39.393 54.5487 39.3096 54.8314 39.2847 55.1222C39.2597 55.4129 39.2937 55.7058 39.385 55.9831C39.4762 56.2603 39.6229 56.5161 39.8157 56.7352C40.0085 56.9543 40.2438 57.132 40.5071 57.2578C40.7705 57.3836 41.0564 57.4548 41.348 57.4671C41.6396 57.4793 41.9306 57.4323 42.2036 57.329C42.4766 57.2258 42.7258 57.0683 42.9362 56.8661L43.6715 56.2174V72.5408C43.6715 73.1142 43.8995 73.6642 44.3049 74.0697C44.7104 74.4751 45.2601 74.7028 45.8335 74.7028H54.4816C55.055 74.7028 55.6048 74.4751 56.0102 74.0697C56.4157 73.6642 56.6436 73.1142 56.6436 72.5408V66.0547C56.6436 65.4813 56.8716 64.9313 57.2771 64.5258C57.6825 64.1204 58.2323 63.8927 58.8057 63.8927H63.1297C63.7031 63.8927 64.2529 64.1204 64.6583 64.5258C65.0638 64.9313 65.2917 65.4813 65.2917 66.0547V72.5408C65.2917 73.1142 65.5197 73.6642 65.9251 74.0697C66.3306 74.4751 66.8803 74.7028 67.4538 74.7028H76.1018C76.6752 74.7028 77.225 74.4751 77.6305 74.0697C78.0359 73.6642 78.2639 73.1142 78.2639 72.5408V56.2174L78.9991 56.8661C79.4294 57.2441 79.9921 57.4357 80.5636 57.3992C81.1352 57.3628 81.6686 57.1012 82.0474 56.6716C82.4253 56.2413 82.617 55.6786 82.5805 55.1071C82.544 54.5356 82.2822 54.0018 81.8526 53.6231Z" fill="white"/>
<path d="M63.7232 34.8321L63.7232 34.8321L63.7144 34.8244C62.9552 34.1574 61.9791 33.7891 60.9677 33.7891C59.9563 33.7891 58.9801 34.1574 58.2209 34.8244L58.2209 34.8244L58.2122 34.8321L38.7845 52.1012C38.3672 52.4467 38.0202 52.8712 37.7646 53.3513C37.5003 53.8479 37.3399 54.3922 37.292 54.9513C37.2441 55.5099 37.3092 56.0737 37.4853 56.6085C37.6612 57.1429 37.9436 57.6353 38.3142 58.0565C38.6859 58.4788 39.1389 58.8207 39.6452 59.0625C40.1515 59.3043 40.702 59.4417 41.2641 59.4653C41.4002 59.471 41.5361 59.47 41.6715 59.4624V72.5408C41.6715 73.6449 42.1104 74.7035 42.8907 75.4839L44.2932 74.0813L42.8907 75.4839C43.6713 76.2645 44.7298 76.7028 45.8335 76.7028H54.4816C55.5854 76.7028 56.6439 76.2645 57.4245 75.4839C58.2048 74.7035 58.6436 73.6449 58.6436 72.5408V66.0547C58.6436 66.012 58.6607 65.9706 58.6913 65.94C58.7216 65.9097 58.7626 65.8927 58.8057 65.8927H63.1297C63.1728 65.8927 63.2138 65.9097 63.2441 65.9401C63.2747 65.9706 63.2917 66.012 63.2917 66.0547V72.5408C63.2917 73.6449 63.7306 74.7035 64.5109 75.4839C65.2915 76.2645 66.35 76.7028 67.4538 76.7028H76.1018C77.2056 76.7028 78.2641 76.2645 79.0447 75.4839C79.825 74.7035 80.2639 73.6449 80.2639 72.5408V59.4005C80.4056 59.406 80.5482 59.4043 80.691 59.3952C81.7911 59.325 82.8184 58.8213 83.5476 57.9943L83.5501 57.9914C84.2778 57.1629 84.6467 56.0797 84.5764 54.9797C84.5063 53.8808 84.0035 52.8547 83.1787 52.1259C83.1775 52.1249 83.1764 52.1239 83.1753 52.1229L63.7232 34.8321Z" stroke="black" stroke-opacity="0.45" stroke-width="4" stroke-linejoin="round"/>
<defs>
<radialGradient id="paint0_radial_3136_193" cx="0" cy="0" r="1" gradientUnits="userSpaceOnUse" gradientTransform="translate(60.8603 38.4897) rotate(90) scale(116.676 163.099)">
<stop stop-color="#18CCF4"/>
<stop offset="1" stop-color="#001D26"/>
</radialGradient>
<radialGradient id="paint1_radial_3136_193" cx="0" cy="0" r="1" gradientUnits="userSpaceOnUse" gradientTransform="translate(60.8603 27.208) rotate(90) scale(119.887 163.099)">
<stop stop-color="#18E7F4"/>
<stop offset="1" stop-color="#001B26"/>
</radialGradient>
<clipPath id="clip0_3136_193">
<rect width="121.073" height="121.073" fill="white" transform="translate(0.360352 0.710693)"/>
</clipPath>
</defs>
</svg>
